<?xml version="1.0" encoding="UTF-8"?>
<svg width="40px" height="45px" viewBox="0 0 46 45" version="1.1" xmlns="http://www.w3.org/2000/svg" xmlns:xlink="http://www.w3.org/1999/xlink">
    <!-- Generator: Sketch 3.6.1 (26313) - http://www.bohemiancoding.com/sketch -->
    <title>githubBlack</title>
    <desc>Created with Sketch.</desc>
    <defs></defs>
    <g id="Welcome" stroke="none" stroke-width="1" fill="none" fill-rule="evenodd">
        <g id="MyVersion-Desktop-HD" transform="translate(-39.000000, -951.000000)" fill="#767677">
            <g id="githubBlack" transform="translate(39.000000, 951.000000)">
                <path d="M0,23.0630631 C0,33.2684685 6.58375,41.8882883 15.72625,44.9441441 C16.87625,45.1459459 17.3075,44.4540541 17.3075,43.8486486 C17.3075,43.3009009 17.27875,41.4846847 17.27875,39.5531532 C11.5,40.6198198 10.005,38.1405405 9.545,36.8432432 C9.28625,36.1801802 8.165,34.1333333 7.1875,33.5855856 C6.3825,33.1531532 5.2325,32.0864865 7.15875,32.0576577 C8.97,32.0288288 10.26375,33.7297297 10.695,34.4216216 C12.765,37.9099099 16.07125,36.9297297 17.39375,36.3243243 C17.595,34.8252252 18.19875,33.8162162 18.86,33.2396396 C13.7425,32.6630631 8.395,30.6738739 8.395,21.8522523 C8.395,19.3441441 9.28625,17.2684685 10.7525,15.6540541 C10.5225,15.0774775 9.7175,12.7135135 10.9825,9.54234234 C10.9825,9.54234234 12.90875,8.93693694 17.3075,11.9063063 C19.1475,11.3873874 21.1025,11.1279279 23.0575,11.1279279 C25.0125,11.1279279 26.9675,11.3873874 28.8075,11.9063063 C33.20625,8.90810811 35.1325,9.54234234 35.1325,9.54234234 C36.3975,12.7135135 35.5925,15.0774775 35.3625,15.6540541 C36.82875,17.2684685 37.72,19.3153153 37.72,21.8522523 C37.72,30.7027027 32.34375,32.6630631 27.22625,33.2396396 C28.06,33.9603604 28.77875,35.3441441 28.77875,37.5063063 C28.77875,40.590991 28.75,43.0702703 28.75,43.8486486 C28.75,44.4540541 29.18125,45.1747748 30.33125,44.9441441 C39.41625,41.8882883 46,33.2396396 46,23.0630631 C46,10.3207207 35.7075,0 23,0 C10.2925,0 0,10.3207207 0,23.0630631 Z" id="Shape"></path>
            </g>
        </g>
    </g>
</svg>