<?xml version="1.0" encoding="UTF-8"?>
<svg width="208px" height="53px" viewBox="0 0 208 53" version="1.1" xmlns="http://www.w3.org/2000/svg" xmlns:xlink="http://www.w3.org/1999/xlink">
    <!-- Generator: Sketch 3.6.1 (26313) - http://www.bohemiancoding.com/sketch -->
    <title>Group 46</title>
    <desc>Created with Sketch.</desc>
    <defs></defs>
    <g id="Page-1" stroke="none" stroke-width="1" fill="none" fill-rule="evenodd">
        <g id="Group-46" transform="translate(0.000000, 1.000000)">
            <g id="Group-38" transform="translate(0.000000, 29.000000)" stroke="#FFFFFF" fill="#000000">
                <path d="M43.6939318,2.72853358 C47.8530517,1.2216061 54.8086746,0 59.2262682,0 L204.023101,0 C208.442253,0 208.926457,1.80129527 205.104712,4.02323995 L184.544657,15.9767601 C180.722862,18.1987341 174.037977,20 169.6167,20 L4.03266926,20 C-0.390018605,20 -0.605402515,18.779017 3.55543718,17.2714664 L43.6939318,2.72853358 Z" id="Rectangle-61"></path>
                <rect id="Rectangle-106" x="0" y="19" width="175" height="4" rx="1"></rect>
                <path d="M174,20.0093691 C174,19.45191 174.393594,18.7916267 174.891941,18.5277959 L207.108059,1.47220414 C207.600664,1.21141299 208,1.44335318 208,2.0093689 L208,3.9906311 C208,4.54809015 207.606406,5.20837329 207.108059,5.47220416 L174.891941,22.5277968 C174.399336,22.7885879 174,22.5566477 174,21.9906318 L174,20.0093691 Z" id="Rectangle-106"></path>
                <path d="M177,11 C180.865993,11 184,10.3284271 184,9.5 C184,8.67157288 180.865993,8 177,8 C173.134007,8 170,8.67157288 170,9.5 C170,10.3284271 173.134007,11 177,11 Z" id="Oval-75"></path>
            </g>
            <g id="Group-45" transform="translate(57.000000, 0.000000)">
                <g id="Group-44">
                    <g id="Group-43" transform="translate(0.000000, 9.000000)">
                        <g id="Group-27" transform="translate(0.521670, 19.741935)">
                            <path d="M13.2979509,14.1169851 C20.6422064,14.1169851 26.5959019,12.046288 26.5959019,9.49195371 C26.5959019,6.93761939 20.6422064,4.86692229 13.2979509,4.86692229 C5.95369543,4.86692229 0,6.93761939 0,9.49195371 C0,12.046288 5.95369543,14.1169851 13.2979509,14.1169851 Z" id="Oval-1" stroke="#000000" fill="#FFFFFF"></path>
                            <path d="M0,4.86692229 L26.5959019,4.86692229 L26.5959019,9.49195371 L26.0987822,9.49195371 L0,9.49195371 L0,4.86692229 Z" id="Rectangle-63" fill="#FFFFFF"></path>
                            <path d="M0.25,5.73411568 L0.25,9.78101817" id="Line" stroke="#000000" stroke-linecap="square"></path>
                            <path d="M26.471622,5.44505122 L26.471622,9.78101817" id="Line" stroke="#000000" stroke-linecap="square"></path>
                            <ellipse id="Oval-1" stroke="#000000" fill="#FFFFFF" cx="13.2979509" cy="4.86692229" rx="13.2979509" ry="4.62503142"></ellipse>
                        </g>
                        <g id="Group-27" transform="translate(0.521670, 14.806452)">
                            <path d="M13.2979509,14.1169851 C20.6422064,14.1169851 26.5959019,12.046288 26.5959019,9.49195371 C26.5959019,6.93761939 20.6422064,4.86692229 13.2979509,4.86692229 C5.95369543,4.86692229 0,6.93761939 0,9.49195371 C0,12.046288 5.95369543,14.1169851 13.2979509,14.1169851 Z" id="Oval-1" stroke="#000000" fill="#FFFFFF"></path>
                            <path d="M0,4.86692229 L26.5959019,4.86692229 L26.5959019,9.49195371 L26.0987822,9.49195371 L0,9.49195371 L0,4.86692229 Z" id="Rectangle-63" fill="#FFFFFF"></path>
                            <path d="M0.25,5.73411568 L0.25,9.78101817" id="Line" stroke="#000000" stroke-linecap="square"></path>
                            <path d="M26.471622,5.44505122 L26.471622,9.78101817" id="Line" stroke="#000000" stroke-linecap="square"></path>
                            <ellipse id="Oval-1" stroke="#000000" fill="#FFFFFF" cx="13.2979509" cy="4.86692229" rx="13.2979509" ry="4.62503142"></ellipse>
                        </g>
                        <g id="Group-27" transform="translate(0.822917, 9.870968)">
                            <path d="M13.2979509,14.1169851 C20.6422064,14.1169851 26.5959019,12.046288 26.5959019,9.49195371 C26.5959019,6.93761939 20.6422064,4.86692229 13.2979509,4.86692229 C5.95369543,4.86692229 0,6.93761939 0,9.49195371 C0,12.046288 5.95369543,14.1169851 13.2979509,14.1169851 Z" id="Oval-1" stroke="#000000" fill="#FFFFFF"></path>
                            <path d="M0,4.86692229 L26.5959019,4.86692229 L26.5959019,9.49195371 L26.0987822,9.49195371 L0,9.49195371 L0,4.86692229 Z" id="Rectangle-63" fill="#FFFFFF"></path>
                            <path d="M0.25,5.73411568 L0.25,9.78101817" id="Line" stroke="#000000" stroke-linecap="square"></path>
                            <path d="M26.471622,5.44505122 L26.471622,9.78101817" id="Line" stroke="#000000" stroke-linecap="square"></path>
                            <ellipse id="Oval-1" stroke="#000000" fill="#FFFFFF" cx="13.2979509" cy="4.86692229" rx="13.2979509" ry="4.62503142"></ellipse>
                        </g>
                        <g id="Group-27" transform="translate(0.822917, 4.935484)">
                            <path d="M13.2979509,14.1169851 C20.6422064,14.1169851 26.5959019,12.046288 26.5959019,9.49195371 C26.5959019,6.93761939 20.6422064,4.86692229 13.2979509,4.86692229 C5.95369543,4.86692229 0,6.93761939 0,9.49195371 C0,12.046288 5.95369543,14.1169851 13.2979509,14.1169851 Z" id="Oval-1" stroke="#000000" fill="#FFFFFF"></path>
                            <path d="M0,4.86692229 L26.5959019,4.86692229 L26.5959019,9.49195371 L26.0987822,9.49195371 L0,9.49195371 L0,4.86692229 Z" id="Rectangle-63" fill="#FFFFFF"></path>
                            <path d="M0.25,5.73411568 L0.25,9.78101817" id="Line" stroke="#000000" stroke-linecap="square"></path>
                            <path d="M26.471622,5.44505122 L26.471622,9.78101817" id="Line" stroke="#000000" stroke-linecap="square"></path>
                            <ellipse id="Oval-1" stroke="#000000" fill="#FFFFFF" cx="13.2979509" cy="4.86692229" rx="13.2979509" ry="4.62503142"></ellipse>
                        </g>
                        <g id="Group-27" transform="translate(0.822917, 0.000000)">
                            <path d="M13.2979509,14.1169851 C20.6422064,14.1169851 26.5959019,12.046288 26.5959019,9.49195371 C26.5959019,6.93761939 20.6422064,4.86692229 13.2979509,4.86692229 C5.95369543,4.86692229 0,6.93761939 0,9.49195371 C0,12.046288 5.95369543,14.1169851 13.2979509,14.1169851 Z" id="Oval-1" stroke="#000000" fill="#FFFFFF"></path>
                            <path d="M0,4.86692229 L26.5959019,4.86692229 L26.5959019,9.49195371 L26.0987822,9.49195371 L0,9.49195371 L0,4.86692229 Z" id="Rectangle-63" fill="#FFFFFF"></path>
                            <path d="M0.25,5.73411568 L0.25,9.78101817" id="Line" stroke="#000000" stroke-linecap="square"></path>
                            <path d="M26.471622,5.44505122 L26.471622,9.78101817" id="Line" stroke="#000000" stroke-linecap="square"></path>
                            <ellipse id="Oval-1" stroke="#000000" fill="#FFFFFF" cx="13.2979509" cy="4.86692229" rx="13.2979509" ry="4.62503142"></ellipse>
                        </g>
                        <g id="Group-27" transform="translate(0.822917, 9.870968)">
                            <path d="M13.2979509,14.1169851 C20.6422064,14.1169851 26.5959019,12.046288 26.5959019,9.49195371 C26.5959019,6.93761939 20.6422064,4.86692229 13.2979509,4.86692229 C5.95369543,4.86692229 0,6.93761939 0,9.49195371 C0,12.046288 5.95369543,14.1169851 13.2979509,14.1169851 Z" id="Oval-1" stroke="#000000" fill="#FFFFFF"></path>
                            <path d="M0,4.86692229 L26.5959019,4.86692229 L26.5959019,9.49195371 L26.0987822,9.49195371 L0,9.49195371 L0,4.86692229 Z" id="Rectangle-63" fill="#FFFFFF"></path>
                            <path d="M0.25,5.73411568 L0.25,9.78101817" id="Line" stroke="#000000" stroke-linecap="square"></path>
                            <path d="M26.471622,5.44505122 L26.471622,9.78101817" id="Line" stroke="#000000" stroke-linecap="square"></path>
                            <ellipse id="Oval-1" stroke="#000000" fill="#FFFFFF" cx="13.2979509" cy="4.86692229" rx="13.2979509" ry="4.62503142"></ellipse>
                        </g>
                        <g id="Group-27" transform="translate(0.822917, 4.935484)">
                            <path d="M13.2979509,14.1169851 C20.6422064,14.1169851 26.5959019,12.046288 26.5959019,9.49195371 C26.5959019,6.93761939 20.6422064,4.86692229 13.2979509,4.86692229 C5.95369543,4.86692229 0,6.93761939 0,9.49195371 C0,12.046288 5.95369543,14.1169851 13.2979509,14.1169851 Z" id="Oval-1" stroke="#000000" fill="#FFFFFF"></path>
                            <path d="M0,4.86692229 L26.5959019,4.86692229 L26.5959019,9.49195371 L26.0987822,9.49195371 L0,9.49195371 L0,4.86692229 Z" id="Rectangle-63" fill="#FFFFFF"></path>
                            <path d="M0.25,5.73411568 L0.25,9.78101817" id="Line" stroke="#000000" stroke-linecap="square"></path>
                            <path d="M26.471622,5.44505122 L26.471622,9.78101817" id="Line" stroke="#000000" stroke-linecap="square"></path>
                            <ellipse id="Oval-1" stroke="#000000" fill="#FFFFFF" cx="13.2979509" cy="4.86692229" rx="13.2979509" ry="4.62503142"></ellipse>
                        </g>
                        <g id="Group-27" transform="translate(0.822917, 0.000000)">
                            <path d="M13.2979509,14.1169851 C20.6422064,14.1169851 26.5959019,12.046288 26.5959019,9.49195371 C26.5959019,6.93761939 20.6422064,4.86692229 13.2979509,4.86692229 C5.95369543,4.86692229 0,6.93761939 0,9.49195371 C0,12.046288 5.95369543,14.1169851 13.2979509,14.1169851 Z" id="Oval-1" stroke="#000000" fill="#FFFFFF"></path>
                            <path d="M0,4.86692229 L26.5959019,4.86692229 L26.5959019,9.49195371 L26.0987822,9.49195371 L0,9.49195371 L0,4.86692229 Z" id="Rectangle-63" fill="#FFFFFF"></path>
                            <path d="M0.25,5.73411568 L0.25,9.78101817" id="Line" stroke="#000000" stroke-linecap="square"></path>
                            <path d="M26.471622,5.44505122 L26.471622,9.78101817" id="Line" stroke="#000000" stroke-linecap="square"></path>
                            <ellipse id="Oval-1" stroke="#000000" fill="#FFFFFF" cx="13.2979509" cy="4.86692229" rx="13.2979509" ry="4.62503142"></ellipse>
                        </g>
                    </g>
                    <g id="Group-42" transform="translate(31.041667, 17.000000)">
                        <g id="Group-27" transform="translate(0.000000, 9.870968)">
                            <path d="M13.2979509,14.1169851 C20.6422064,14.1169851 26.5959019,12.046288 26.5959019,9.49195371 C26.5959019,6.93761939 20.6422064,4.86692229 13.2979509,4.86692229 C5.95369543,4.86692229 0,6.93761939 0,9.49195371 C0,12.046288 5.95369543,14.1169851 13.2979509,14.1169851 Z" id="Oval-1" stroke="#000000" fill="#FFFFFF"></path>
                            <path d="M0,4.86692229 L26.5959019,4.86692229 L26.5959019,9.49195371 L26.0987822,9.49195371 L0,9.49195371 L0,4.86692229 Z" id="Rectangle-63" fill="#FFFFFF"></path>
                            <path d="M0.25,5.73411568 L0.25,9.78101817" id="Line" stroke="#000000" stroke-linecap="square"></path>
                            <path d="M26.471622,5.44505122 L26.471622,9.78101817" id="Line" stroke="#000000" stroke-linecap="square"></path>
                            <ellipse id="Oval-1" stroke="#000000" fill="#FFFFFF" cx="13.2979509" cy="4.86692229" rx="13.2979509" ry="4.62503142"></ellipse>
                        </g>
                        <g id="Group-27" transform="translate(0.000000, 4.935484)">
                            <path d="M13.2979509,14.1169851 C20.6422064,14.1169851 26.5959019,12.046288 26.5959019,9.49195371 C26.5959019,6.93761939 20.6422064,4.86692229 13.2979509,4.86692229 C5.95369543,4.86692229 0,6.93761939 0,9.49195371 C0,12.046288 5.95369543,14.1169851 13.2979509,14.1169851 Z" id="Oval-1" stroke="#000000" fill="#FFFFFF"></path>
                            <path d="M0,4.86692229 L26.5959019,4.86692229 L26.5959019,9.49195371 L26.0987822,9.49195371 L0,9.49195371 L0,4.86692229 Z" id="Rectangle-63" fill="#FFFFFF"></path>
                            <path d="M0.25,5.73411568 L0.25,9.78101817" id="Line" stroke="#000000" stroke-linecap="square"></path>
                            <path d="M26.471622,5.44505122 L26.471622,9.78101817" id="Line" stroke="#000000" stroke-linecap="square"></path>
                            <ellipse id="Oval-1" stroke="#000000" fill="#FFFFFF" cx="13.2979509" cy="4.86692229" rx="13.2979509" ry="4.62503142"></ellipse>
                        </g>
                        <g id="Group-27">
                            <path d="M13.2979509,14.1169851 C20.6422064,14.1169851 26.5959019,12.046288 26.5959019,9.49195371 C26.5959019,6.93761939 20.6422064,4.86692229 13.2979509,4.86692229 C5.95369543,4.86692229 0,6.93761939 0,9.49195371 C0,12.046288 5.95369543,14.1169851 13.2979509,14.1169851 Z" id="Oval-1" stroke="#000000" fill="#FFFFFF"></path>
                            <path d="M0,4.86692229 L26.5959019,4.86692229 L26.5959019,9.49195371 L26.0987822,9.49195371 L0,9.49195371 L0,4.86692229 Z" id="Rectangle-63" fill="#FFFFFF"></path>
                            <path d="M0.25,5.73411568 L0.25,9.78101817" id="Line" stroke="#000000" stroke-linecap="square"></path>
                            <path d="M26.471622,5.44505122 L26.471622,9.78101817" id="Line" stroke="#000000" stroke-linecap="square"></path>
                            <ellipse id="Oval-1" stroke="#000000" fill="#FFFFFF" cx="13.2979509" cy="4.86692229" rx="13.2979509" ry="4.62503142"></ellipse>
                        </g>
                    </g>
                    <g id="Group-40" transform="translate(69.000000, 0.000000)">
                        <g id="Group-27" transform="translate(0.000000, 29.612903)">
                            <path d="M13.2979509,14.1169851 C20.6422064,14.1169851 26.5959019,12.046288 26.5959019,9.49195371 C26.5959019,6.93761939 20.6422064,4.86692229 13.2979509,4.86692229 C5.95369543,4.86692229 0,6.93761939 0,9.49195371 C0,12.046288 5.95369543,14.1169851 13.2979509,14.1169851 Z" id="Oval-1" stroke="#000000" fill="#FFFFFF"></path>
                            <path d="M0,4.86692229 L26.5959019,4.86692229 L26.5959019,9.49195371 L26.0987822,9.49195371 L0,9.49195371 L0,4.86692229 Z" id="Rectangle-63" fill="#FFFFFF"></path>
                            <path d="M0.25,5.73411568 L0.25,9.78101817" id="Line" stroke="#000000" stroke-linecap="square"></path>
                            <path d="M26.471622,5.44505122 L26.471622,9.78101817" id="Line" stroke="#000000" stroke-linecap="square"></path>
                            <ellipse id="Oval-1" stroke="#000000" fill="#FFFFFF" cx="13.2979509" cy="4.86692229" rx="13.2979509" ry="4.62503142"></ellipse>
                        </g>
                        <g id="Group-27" transform="translate(0.000000, 24.677419)">
                            <path d="M13.2979509,14.1169851 C20.6422064,14.1169851 26.5959019,12.046288 26.5959019,9.49195371 C26.5959019,6.93761939 20.6422064,4.86692229 13.2979509,4.86692229 C5.95369543,4.86692229 0,6.93761939 0,9.49195371 C0,12.046288 5.95369543,14.1169851 13.2979509,14.1169851 Z" id="Oval-1" stroke="#000000" fill="#FFFFFF"></path>
                            <path d="M0,4.86692229 L26.5959019,4.86692229 L26.5959019,9.49195371 L26.0987822,9.49195371 L0,9.49195371 L0,4.86692229 Z" id="Rectangle-63" fill="#FFFFFF"></path>
                            <path d="M0.25,5.73411568 L0.25,9.78101817" id="Line" stroke="#000000" stroke-linecap="square"></path>
                            <path d="M26.471622,5.44505122 L26.471622,9.78101817" id="Line" stroke="#000000" stroke-linecap="square"></path>
                            <ellipse id="Oval-1" stroke="#000000" fill="#FFFFFF" cx="13.2979509" cy="4.86692229" rx="13.2979509" ry="4.62503142"></ellipse>
                        </g>
                        <g id="Group-27" transform="translate(0.000000, 19.741935)">
                            <path d="M13.2979509,14.1169851 C20.6422064,14.1169851 26.5959019,12.046288 26.5959019,9.49195371 C26.5959019,6.93761939 20.6422064,4.86692229 13.2979509,4.86692229 C5.95369543,4.86692229 0,6.93761939 0,9.49195371 C0,12.046288 5.95369543,14.1169851 13.2979509,14.1169851 Z" id="Oval-1" stroke="#000000" fill="#FFFFFF"></path>
                            <path d="M0,4.86692229 L26.5959019,4.86692229 L26.5959019,9.49195371 L26.0987822,9.49195371 L0,9.49195371 L0,4.86692229 Z" id="Rectangle-63" fill="#FFFFFF"></path>
                            <path d="M0.25,5.73411568 L0.25,9.78101817" id="Line" stroke="#000000" stroke-linecap="square"></path>
                            <path d="M26.471622,5.44505122 L26.471622,9.78101817" id="Line" stroke="#000000" stroke-linecap="square"></path>
                            <ellipse id="Oval-1" stroke="#000000" fill="#FFFFFF" cx="13.2979509" cy="4.86692229" rx="13.2979509" ry="4.62503142"></ellipse>
                        </g>
                        <g id="Group-27" transform="translate(0.000000, 14.806452)">
                            <path d="M13.2979509,14.1169851 C20.6422064,14.1169851 26.5959019,12.046288 26.5959019,9.49195371 C26.5959019,6.93761939 20.6422064,4.86692229 13.2979509,4.86692229 C5.95369543,4.86692229 0,6.93761939 0,9.49195371 C0,12.046288 5.95369543,14.1169851 13.2979509,14.1169851 Z" id="Oval-1" stroke="#000000" fill="#FFFFFF"></path>
                            <path d="M0,4.86692229 L26.5959019,4.86692229 L26.5959019,9.49195371 L26.0987822,9.49195371 L0,9.49195371 L0,4.86692229 Z" id="Rectangle-63" fill="#FFFFFF"></path>
                            <path d="M0.25,5.73411568 L0.25,9.78101817" id="Line" stroke="#000000" stroke-linecap="square"></path>
                            <path d="M26.471622,5.44505122 L26.471622,9.78101817" id="Line" stroke="#000000" stroke-linecap="square"></path>
                            <ellipse id="Oval-1" stroke="#000000" fill="#FFFFFF" cx="13.2979509" cy="4.86692229" rx="13.2979509" ry="4.62503142"></ellipse>
                        </g>
                        <g id="Group-27" transform="translate(0.000000, 9.870968)">
                            <path d="M13.2979509,14.1169851 C20.6422064,14.1169851 26.5959019,12.046288 26.5959019,9.49195371 C26.5959019,6.93761939 20.6422064,4.86692229 13.2979509,4.86692229 C5.95369543,4.86692229 0,6.93761939 0,9.49195371 C0,12.046288 5.95369543,14.1169851 13.2979509,14.1169851 Z" id="Oval-1" stroke="#000000" fill="#FFFFFF"></path>
                            <path d="M0,4.86692229 L26.5959019,4.86692229 L26.5959019,9.49195371 L26.0987822,9.49195371 L0,9.49195371 L0,4.86692229 Z" id="Rectangle-63" fill="#FFFFFF"></path>
                            <path d="M0.25,5.73411568 L0.25,9.78101817" id="Line" stroke="#000000" stroke-linecap="square"></path>
                            <path d="M26.471622,5.44505122 L26.471622,9.78101817" id="Line" stroke="#000000" stroke-linecap="square"></path>
                            <ellipse id="Oval-1" stroke="#000000" fill="#FFFFFF" cx="13.2979509" cy="4.86692229" rx="13.2979509" ry="4.62503142"></ellipse>
                        </g>
                        <g id="Group-27" transform="translate(0.000000, 19.741935)">
                            <path d="M13.2979509,14.1169851 C20.6422064,14.1169851 26.5959019,12.046288 26.5959019,9.49195371 C26.5959019,6.93761939 20.6422064,4.86692229 13.2979509,4.86692229 C5.95369543,4.86692229 0,6.93761939 0,9.49195371 C0,12.046288 5.95369543,14.1169851 13.2979509,14.1169851 Z" id="Oval-1" stroke="#000000" fill="#FFFFFF"></path>
                            <path d="M0,4.86692229 L26.5959019,4.86692229 L26.5959019,9.49195371 L26.0987822,9.49195371 L0,9.49195371 L0,4.86692229 Z" id="Rectangle-63" fill="#FFFFFF"></path>
                            <path d="M0.25,5.73411568 L0.25,9.78101817" id="Line" stroke="#000000" stroke-linecap="square"></path>
                            <path d="M26.471622,5.44505122 L26.471622,9.78101817" id="Line" stroke="#000000" stroke-linecap="square"></path>
                            <ellipse id="Oval-1" stroke="#000000" fill="#FFFFFF" cx="13.2979509" cy="4.86692229" rx="13.2979509" ry="4.62503142"></ellipse>
                        </g>
                        <g id="Group-27" transform="translate(0.000000, 14.806452)">
                            <path d="M13.2979509,14.1169851 C20.6422064,14.1169851 26.5959019,12.046288 26.5959019,9.49195371 C26.5959019,6.93761939 20.6422064,4.86692229 13.2979509,4.86692229 C5.95369543,4.86692229 0,6.93761939 0,9.49195371 C0,12.046288 5.95369543,14.1169851 13.2979509,14.1169851 Z" id="Oval-1" stroke="#000000" fill="#FFFFFF"></path>
                            <path d="M0,4.86692229 L26.5959019,4.86692229 L26.5959019,9.49195371 L26.0987822,9.49195371 L0,9.49195371 L0,4.86692229 Z" id="Rectangle-63" fill="#FFFFFF"></path>
                            <path d="M0.25,5.73411568 L0.25,9.78101817" id="Line" stroke="#000000" stroke-linecap="square"></path>
                            <path d="M26.471622,5.44505122 L26.471622,9.78101817" id="Line" stroke="#000000" stroke-linecap="square"></path>
                            <ellipse id="Oval-1" stroke="#000000" fill="#FFFFFF" cx="13.2979509" cy="4.86692229" rx="13.2979509" ry="4.62503142"></ellipse>
                        </g>
                        <g id="Group-27" transform="translate(0.000000, 9.870968)">
                            <path d="M13.2979509,14.1169851 C20.6422064,14.1169851 26.5959019,12.046288 26.5959019,9.49195371 C26.5959019,6.93761939 20.6422064,4.86692229 13.2979509,4.86692229 C5.95369543,4.86692229 0,6.93761939 0,9.49195371 C0,12.046288 5.95369543,14.1169851 13.2979509,14.1169851 Z" id="Oval-1" stroke="#000000" fill="#FFFFFF"></path>
                            <path d="M0,4.86692229 L26.5959019,4.86692229 L26.5959019,9.49195371 L26.0987822,9.49195371 L0,9.49195371 L0,4.86692229 Z" id="Rectangle-63" fill="#FFFFFF"></path>
                            <path d="M0.25,5.73411568 L0.25,9.78101817" id="Line" stroke="#000000" stroke-linecap="square"></path>
                            <path d="M26.471622,5.44505122 L26.471622,9.78101817" id="Line" stroke="#000000" stroke-linecap="square"></path>
                            <ellipse id="Oval-1" stroke="#000000" fill="#FFFFFF" cx="13.2979509" cy="4.86692229" rx="13.2979509" ry="4.62503142"></ellipse>
                        </g>
                        <g id="Group-27" transform="translate(0.000000, 4.935484)">
                            <path d="M13.2979509,14.1169851 C20.6422064,14.1169851 26.5959019,12.046288 26.5959019,9.49195371 C26.5959019,6.93761939 20.6422064,4.86692229 13.2979509,4.86692229 C5.95369543,4.86692229 0,6.93761939 0,9.49195371 C0,12.046288 5.95369543,14.1169851 13.2979509,14.1169851 Z" id="Oval-1" stroke="#000000" fill="#FFFFFF"></path>
                            <path d="M0,4.86692229 L26.5959019,4.86692229 L26.5959019,9.49195371 L26.0987822,9.49195371 L0,9.49195371 L0,4.86692229 Z" id="Rectangle-63" fill="#FFFFFF"></path>
                            <path d="M0.25,5.73411568 L0.25,9.78101817" id="Line" stroke="#000000" stroke-linecap="square"></path>
                            <path d="M26.471622,5.44505122 L26.471622,9.78101817" id="Line" stroke="#000000" stroke-linecap="square"></path>
                            <ellipse id="Oval-1" stroke="#000000" fill="#FFFFFF" cx="13.2979509" cy="4.86692229" rx="13.2979509" ry="4.62503142"></ellipse>
                        </g>
                        <g id="Group-27">
                            <path d="M13.2979509,14.1169851 C20.6422064,14.1169851 26.5959019,12.046288 26.5959019,9.49195371 C26.5959019,6.93761939 20.6422064,4.86692229 13.2979509,4.86692229 C5.95369543,4.86692229 0,6.93761939 0,9.49195371 C0,12.046288 5.95369543,14.1169851 13.2979509,14.1169851 Z" id="Oval-1" stroke="#000000" fill="#FFFFFF"></path>
                            <path d="M0,4.86692229 L26.5959019,4.86692229 L26.5959019,9.49195371 L26.0987822,9.49195371 L0,9.49195371 L0,4.86692229 Z" id="Rectangle-63" fill="#FFFFFF"></path>
                            <path d="M0.25,5.73411568 L0.25,9.78101817" id="Line" stroke="#000000" stroke-linecap="square"></path>
                            <path d="M26.471622,5.44505122 L26.471622,9.78101817" id="Line" stroke="#000000" stroke-linecap="square"></path>
                            <ellipse id="Oval-1" stroke="#000000" fill="#FFFFFF" cx="13.2979509" cy="4.86692229" rx="13.2979509" ry="4.62503142"></ellipse>
                        </g>
                    </g>
                    <g id="Group-41" transform="translate(47.000000, 27.000000)">
                        <g id="Group-27" transform="translate(0.000000, 4.935484)">
                            <path d="M13.2979509,14.1169851 C20.6422064,14.1169851 26.5959019,12.046288 26.5959019,9.49195371 C26.5959019,6.93761939 20.6422064,4.86692229 13.2979509,4.86692229 C5.95369543,4.86692229 0,6.93761939 0,9.49195371 C0,12.046288 5.95369543,14.1169851 13.2979509,14.1169851 Z" id="Oval-1" stroke="#000000" fill="#FFFFFF"></path>
                            <path d="M0,4.86692229 L26.5959019,4.86692229 L26.5959019,9.49195371 L26.0987822,9.49195371 L0,9.49195371 L0,4.86692229 Z" id="Rectangle-63" fill="#FFFFFF"></path>
                            <path d="M0.25,5.73411568 L0.25,9.78101817" id="Line" stroke="#000000" stroke-linecap="square"></path>
                            <path d="M26.471622,5.44505122 L26.471622,9.78101817" id="Line" stroke="#000000" stroke-linecap="square"></path>
                            <ellipse id="Oval-1" stroke="#000000" fill="#FFFFFF" cx="13.2979509" cy="4.86692229" rx="13.2979509" ry="4.62503142"></ellipse>
                        </g>
                        <g id="Group-27">
                            <path d="M13.2979509,14.1169851 C20.6422064,14.1169851 26.5959019,12.046288 26.5959019,9.49195371 C26.5959019,6.93761939 20.6422064,4.86692229 13.2979509,4.86692229 C5.95369543,4.86692229 0,6.93761939 0,9.49195371 C0,12.046288 5.95369543,14.1169851 13.2979509,14.1169851 Z" id="Oval-1" stroke="#000000" fill="#FFFFFF"></path>
                            <path d="M0,4.86692229 L26.5959019,4.86692229 L26.5959019,9.49195371 L26.0987822,9.49195371 L0,9.49195371 L0,4.86692229 Z" id="Rectangle-63" fill="#FFFFFF"></path>
                            <path d="M0.25,5.73411568 L0.25,9.78101817" id="Line" stroke="#000000" stroke-linecap="square"></path>
                            <path d="M26.471622,5.44505122 L26.471622,9.78101817" id="Line" stroke="#000000" stroke-linecap="square"></path>
                            <ellipse id="Oval-1" stroke="#000000" fill="#FFFFFF" cx="13.2979509" cy="4.86692229" rx="13.2979509" ry="4.62503142"></ellipse>
                        </g>
                    </g>
                </g>
            </g>
        </g>
    </g>
</svg>