<?xml version="1.0" encoding="UTF-8"?>
<svg width="224px" height="85px" viewBox="0 0 224 85" version="1.1" xmlns="http://www.w3.org/2000/svg" xmlns:xlink="http://www.w3.org/1999/xlink">
    <!-- Generator: Sketch 3.6.1 (26313) - http://www.bohemiancoding.com/sketch -->
    <title>Group 39</title>
    <desc>Created with Sketch.</desc>
    <defs></defs>
    <g id="Page-1" stroke="none" stroke-width="1" fill="none" fill-rule="evenodd">
        <g id="Group-39">
            <rect id="Rectangle-154" fill="#BD0FE1" x="0" y="0" width="224" height="85" rx="2"></rect>
            <g id="Group-31" transform="translate(8.000000, 21.000000)">
                <g id="Group-38" transform="translate(0.000000, 20.000000)" stroke="#FFFFFF" fill="#000000">
                    <path d="M43.6939318,2.72853358 C47.8530517,1.2216061 54.8086746,0 59.2262682,0 L204.023101,0 C208.442253,0 208.926457,1.80129527 205.104712,4.02323995 L184.544657,15.9767601 C180.722862,18.1987341 174.037977,20 169.6167,20 L4.03266926,20 C-0.390018605,20 -0.605402515,18.779017 3.55543718,17.2714664 L43.6939318,2.72853358 Z" id="Rectangle-61"></path>
                    <rect id="Rectangle-106" x="0" y="19" width="175" height="4" rx="1"></rect>
                    <path d="M174,20.0093691 C174,19.45191 174.393594,18.7916267 174.891941,18.5277959 L207.108059,1.47220414 C207.600664,1.21141299 208,1.44335318 208,2.0093689 L208,3.9906311 C208,4.54809015 207.606406,5.20837329 207.108059,5.47220416 L174.891941,22.5277968 C174.399336,22.7885879 174,22.5566477 174,21.9906318 L174,20.0093691 Z" id="Rectangle-106"></path>
                    <path d="M177,11 C180.865993,11 184,10.3284271 184,9.5 C184,8.67157288 180.865993,8 177,8 C173.134007,8 170,8.67157288 170,9.5 C170,10.3284271 173.134007,11 177,11 Z" id="Oval-75"></path>
                </g>
                <g id="Group-35" transform="translate(54.000000, 0.000000)">
                    <g id="Group-30">
                        <g id="Group-37" transform="translate(32.464286, 8.142857)">
                            <g id="Group-27" transform="translate(0.415606, 6.293996)">
                                <path d="M16.1595353,17.1618251 C25.0842002,17.1618251 32.3190706,14.644507 32.3190706,11.5392378 C32.3190706,8.43396867 25.0842002,5.91665063 16.1595353,5.91665063 C7.2348704,5.91665063 0,8.43396867 0,11.5392378 C0,14.644507 7.2348704,17.1618251 16.1595353,17.1618251 Z" id="Oval-1" stroke="#FFFFFF" fill="#417505"></path>
                                <path d="M0,5.91665063 L32.3190706,5.91665063 L32.3190706,11.5392378 L31.7149758,11.5392378 L0,11.5392378 L0,5.91665063 Z" id="Rectangle-63" fill="#417505"></path>
                                <path d="M0.25,6.97088573 L0.25,11.8906495" id="Line" stroke="#FFFFFF" stroke-linecap="square"></path>
                                <path d="M32.1680469,6.61947403 L32.1680469,11.8906495" id="Line" stroke="#FFFFFF" stroke-linecap="square"></path>
                                <ellipse id="Oval-1" stroke="#FFFFFF" fill="#417505" cx="16.1595353" cy="5.91665063" rx="16.1595353" ry="5.62258721"></ellipse>
                            </g>
                            <g id="Group-27" transform="translate(0.415606, 0.511387)">
                                <path d="M16.1595353,17.1618251 C25.0842002,17.1618251 32.3190706,14.644507 32.3190706,11.5392378 C32.3190706,8.43396867 25.0842002,5.91665063 16.1595353,5.91665063 C7.2348704,5.91665063 0,8.43396867 0,11.5392378 C0,14.644507 7.2348704,17.1618251 16.1595353,17.1618251 Z" id="Oval-1" stroke="#FFFFFF" fill="#417505"></path>
                                <path d="M0,5.91665063 L32.3190706,5.91665063 L32.3190706,11.5392378 L31.7149758,11.5392378 L0,11.5392378 L0,5.91665063 Z" id="Rectangle-63" fill="#417505"></path>
                                <path d="M0.25,6.97088573 L0.25,11.8906495" id="Line" stroke="#FFFFFF" stroke-linecap="square"></path>
                                <path d="M32.1680469,6.61947403 L32.1680469,11.8906495" id="Line" stroke="#FFFFFF" stroke-linecap="square"></path>
                                <ellipse id="Oval-1" stroke="#FFFFFF" fill="#417505" cx="16.1595353" cy="5.91665063" rx="16.1595353" ry="5.62258721"></ellipse>
                            </g>
                        </g>
                        <g id="Group-36" transform="translate(0.000000, 1.809524)">
                            <g id="Group-27" transform="translate(0.000000, 16.521739)">
                                <path d="M16.1595353,17.1618251 C25.0842002,17.1618251 32.3190706,14.644507 32.3190706,11.5392378 C32.3190706,8.43396867 25.0842002,5.91665063 16.1595353,5.91665063 C7.2348704,5.91665063 0,8.43396867 0,11.5392378 C0,14.644507 7.2348704,17.1618251 16.1595353,17.1618251 Z" id="Oval-1" stroke="#FFFFFF" fill="#9012FE"></path>
                                <path d="M0,5.91665063 L32.3190706,5.91665063 L32.3190706,11.5392378 L31.7149758,11.5392378 L0,11.5392378 L0,5.91665063 Z" id="Rectangle-63" fill="#9012FE"></path>
                                <path d="M0.25,6.97088573 L0.25,11.8906495" id="Line" stroke="#FFFFFF" stroke-linecap="square"></path>
                                <path d="M32.1680469,6.61947403 L32.1680469,11.8906495" id="Line" stroke="#FFFFFF" stroke-linecap="square"></path>
                                <ellipse id="Oval-1" stroke="#FFFFFF" fill="#9012FE" cx="16.1595353" cy="5.91665063" rx="16.1595353" ry="5.62258721"></ellipse>
                            </g>
                            <g id="Group-27" transform="translate(0.000000, 11.565217)">
                                <path d="M16.1595353,17.1618251 C25.0842002,17.1618251 32.3190706,14.644507 32.3190706,11.5392378 C32.3190706,8.43396867 25.0842002,5.91665063 16.1595353,5.91665063 C7.2348704,5.91665063 0,8.43396867 0,11.5392378 C0,14.644507 7.2348704,17.1618251 16.1595353,17.1618251 Z" id="Oval-1" stroke="#FFFFFF" fill="#9012FE"></path>
                                <path d="M0,5.91665063 L32.3190706,5.91665063 L32.3190706,11.5392378 L31.7149758,11.5392378 L0,11.5392378 L0,5.91665063 Z" id="Rectangle-63" fill="#9012FE"></path>
                                <path d="M0.25,6.97088573 L0.25,11.8906495" id="Line" stroke="#FFFFFF" stroke-linecap="square"></path>
                                <path d="M32.1680469,6.61947403 L32.1680469,11.8906495" id="Line" stroke="#FFFFFF" stroke-linecap="square"></path>
                                <ellipse id="Oval-1" stroke="#FFFFFF" fill="#9012FE" cx="16.1595353" cy="5.91665063" rx="16.1595353" ry="5.62258721"></ellipse>
                            </g>
                            <g id="Group-27" transform="translate(0.000000, 5.782609)">
                                <path d="M16.1595353,17.1618251 C25.0842002,17.1618251 32.3190706,14.644507 32.3190706,11.5392378 C32.3190706,8.43396867 25.0842002,5.91665063 16.1595353,5.91665063 C7.2348704,5.91665063 0,8.43396867 0,11.5392378 C0,14.644507 7.2348704,17.1618251 16.1595353,17.1618251 Z" id="Oval-1" stroke="#FFFFFF" fill="#9012FE"></path>
                                <path d="M0,5.91665063 L32.3190706,5.91665063 L32.3190706,11.5392378 L31.7149758,11.5392378 L0,11.5392378 L0,5.91665063 Z" id="Rectangle-63" fill="#9012FE"></path>
                                <path d="M0.25,6.97088573 L0.25,11.8906495" id="Line" stroke="#FFFFFF" stroke-linecap="square"></path>
                                <path d="M32.1680469,6.61947403 L32.1680469,11.8906495" id="Line" stroke="#FFFFFF" stroke-linecap="square"></path>
                                <ellipse id="Oval-1" stroke="#FFFFFF" fill="#9012FE" cx="16.1595353" cy="5.91665063" rx="16.1595353" ry="5.62258721"></ellipse>
                            </g>
                            <g id="Group-27" transform="translate(0.000000, 0.826087)">
                                <path d="M16.1595353,17.1618251 C25.0842002,17.1618251 32.3190706,14.644507 32.3190706,11.5392378 C32.3190706,8.43396867 25.0842002,5.91665063 16.1595353,5.91665063 C7.2348704,5.91665063 0,8.43396867 0,11.5392378 C0,14.644507 7.2348704,17.1618251 16.1595353,17.1618251 Z" id="Oval-1" stroke="#FFFFFF" fill="#9012FE"></path>
                                <path d="M0,5.91665063 L32.3190706,5.91665063 L32.3190706,11.5392378 L31.7149758,11.5392378 L0,11.5392378 L0,5.91665063 Z" id="Rectangle-63" fill="#9012FE"></path>
                                <path d="M0.25,6.97088573 L0.25,11.8906495" id="Line" stroke="#FFFFFF" stroke-linecap="square"></path>
                                <path d="M32.1680469,6.61947403 L32.1680469,11.8906495" id="Line" stroke="#FFFFFF" stroke-linecap="square"></path>
                                <ellipse id="Oval-1" stroke="#FFFFFF" fill="#9012FE" cx="16.1595353" cy="5.91665063" rx="16.1595353" ry="5.62258721"></ellipse>
                            </g>
                        </g>
                        <g id="Group-32" transform="translate(67.633929, 0.000000)">
                            <g id="Group-27" transform="translate(0.000000, 17.347826)">
                                <path d="M16.1595353,17.1618251 C25.0842002,17.1618251 32.3190706,14.644507 32.3190706,11.5392378 C32.3190706,8.43396867 25.0842002,5.91665063 16.1595353,5.91665063 C7.2348704,5.91665063 0,8.43396867 0,11.5392378 C0,14.644507 7.2348704,17.1618251 16.1595353,17.1618251 Z" id="Oval-1" stroke="#FFFFFF" fill="#D0011B"></path>
                                <path d="M0,5.91665063 L32.3190706,5.91665063 L32.3190706,11.5392378 L31.7149758,11.5392378 L0,11.5392378 L0,5.91665063 Z" id="Rectangle-63" fill="#D0011B"></path>
                                <path d="M0.25,6.97088573 L0.25,11.8906495" id="Line" stroke="#FFFFFF" stroke-linecap="square"></path>
                                <path d="M32.1680469,6.61947403 L32.1680469,11.8906495" id="Line" stroke="#FFFFFF" stroke-linecap="square"></path>
                                <ellipse id="Oval-1" stroke="#FFFFFF" fill="#D0011B" cx="16.1595353" cy="5.91665063" rx="16.1595353" ry="5.62258721"></ellipse>
                            </g>
                            <g id="Group-27" transform="translate(0.000000, 11.565217)">
                                <path d="M16.1595353,17.1618251 C25.0842002,17.1618251 32.3190706,14.644507 32.3190706,11.5392378 C32.3190706,8.43396867 25.0842002,5.91665063 16.1595353,5.91665063 C7.2348704,5.91665063 0,8.43396867 0,11.5392378 C0,14.644507 7.2348704,17.1618251 16.1595353,17.1618251 Z" id="Oval-1" stroke="#FFFFFF" fill="#D0011B"></path>
                                <path d="M0,5.91665063 L32.3190706,5.91665063 L32.3190706,11.5392378 L31.7149758,11.5392378 L0,11.5392378 L0,5.91665063 Z" id="Rectangle-63" fill="#D0011B"></path>
                                <path d="M0.25,6.97088573 L0.25,11.8906495" id="Line" stroke="#FFFFFF" stroke-linecap="square"></path>
                                <path d="M32.1680469,6.61947403 L32.1680469,11.8906495" id="Line" stroke="#FFFFFF" stroke-linecap="square"></path>
                                <ellipse id="Oval-1" stroke="#FFFFFF" fill="#D0011B" cx="16.1595353" cy="5.91665063" rx="16.1595353" ry="5.62258721"></ellipse>
                            </g>
                            <g id="Group-27" transform="translate(0.000000, 5.782609)">
                                <path d="M16.1595353,17.1618251 C25.0842002,17.1618251 32.3190706,14.644507 32.3190706,11.5392378 C32.3190706,8.43396867 25.0842002,5.91665063 16.1595353,5.91665063 C7.2348704,5.91665063 0,8.43396867 0,11.5392378 C0,14.644507 7.2348704,17.1618251 16.1595353,17.1618251 Z" id="Oval-1" stroke="#FFFFFF" fill="#D0011B"></path>
                                <path d="M0,5.91665063 L32.3190706,5.91665063 L32.3190706,11.5392378 L31.7149758,11.5392378 L0,11.5392378 L0,5.91665063 Z" id="Rectangle-63" fill="#D0011B"></path>
                                <path d="M0.25,6.97088573 L0.25,11.8906495" id="Line" stroke="#FFFFFF" stroke-linecap="square"></path>
                                <path d="M32.1680469,6.61947403 L32.1680469,11.8906495" id="Line" stroke="#FFFFFF" stroke-linecap="square"></path>
                                <ellipse id="Oval-1" stroke="#FFFFFF" fill="#D0011B" cx="16.1595353" cy="5.91665063" rx="16.1595353" ry="5.62258721"></ellipse>
                            </g>
                            <g id="Group-27">
                                <path d="M16.1595353,17.1618251 C25.0842002,17.1618251 32.3190706,14.644507 32.3190706,11.5392378 C32.3190706,8.43396867 25.0842002,5.91665063 16.1595353,5.91665063 C7.2348704,5.91665063 0,8.43396867 0,11.5392378 C0,14.644507 7.2348704,17.1618251 16.1595353,17.1618251 Z" id="Oval-1" stroke="#FFFFFF" fill="#D0011B"></path>
                                <path d="M0,5.91665063 L32.3190706,5.91665063 L32.3190706,11.5392378 L31.7149758,11.5392378 L0,11.5392378 L0,5.91665063 Z" id="Rectangle-63" fill="#D0011B"></path>
                                <path d="M0.25,6.97088573 L0.25,11.8906495" id="Line" stroke="#FFFFFF" stroke-linecap="square"></path>
                                <path d="M32.1680469,6.61947403 L32.1680469,11.8906495" id="Line" stroke="#FFFFFF" stroke-linecap="square"></path>
                                <ellipse id="Oval-1" stroke="#FFFFFF" fill="#D0011B" cx="16.1595353" cy="5.91665063" rx="16.1595353" ry="5.62258721"></ellipse>
                            </g>
                        </g>
                    </g>
                    <g id="Group-27" transform="translate(45.991071, 20.809524)">
                        <path d="M16.1595353,17.1618251 C25.0842002,17.1618251 32.3190706,14.644507 32.3190706,11.5392378 C32.3190706,8.43396867 25.0842002,5.91665063 16.1595353,5.91665063 C7.2348704,5.91665063 0,8.43396867 0,11.5392378 C0,14.644507 7.2348704,17.1618251 16.1595353,17.1618251 Z" id="Oval-1" stroke="#FFFFFF" fill="#F6A623"></path>
                        <path d="M0,5.91665063 L32.3190706,5.91665063 L32.3190706,11.5392378 L31.7149758,11.5392378 L0,11.5392378 L0,5.91665063 Z" id="Rectangle-63" fill="#F6A623"></path>
                        <path d="M0.25,6.97088573 L0.25,11.8906495" id="Line" stroke="#FFFFFF" stroke-linecap="square"></path>
                        <path d="M32.1680469,6.61947403 L32.1680469,11.8906495" id="Line" stroke="#FFFFFF" stroke-linecap="square"></path>
                        <ellipse id="Oval-1" stroke="#FFFFFF" fill="#F6A623" cx="16.1595353" cy="5.91665063" rx="16.1595353" ry="5.62258721"></ellipse>
                    </g>
                </g>
            </g>
        </g>
    </g>
</svg>