<?xml version="1.0" encoding="UTF-8"?>
<svg width="40px" height="46px" viewBox="0 0 46 46" version="1.1" xmlns="http://www.w3.org/2000/svg" xmlns:xlink="http://www.w3.org/1999/xlink">
    <!-- Generator: Sketch 3.6.1 (26313) - http://www.bohemiancoding.com/sketch -->
    <title>linkedin</title>
    <desc>Created with Sketch.</desc>
    <defs></defs>
    <g id="Welcome" stroke="none" stroke-width="1" fill="none" fill-rule="evenodd">
        <g id="MyVersion-Desktop-HD" transform="translate(-114.000000, -951.000000)" fill="#767677">
            <g id="linkedin" transform="translate(114.000000, 951.000000)">
                <path d="M36.4166667,0 L9.58333333,0 C4.29141667,0 0,4.29141667 0,9.58333333 L0,36.4166667 C0,41.7085833 4.29141667,46 9.58333333,46 L36.4166667,46 C41.7105,46 46,41.7085833 46,36.4166667 L46,9.58333333 C46,4.29141667 41.7105,0 36.4166667,0 L36.4166667,0 Z M15.3333333,36.4166667 L9.58333333,36.4166667 L9.58333333,15.3333333 L15.3333333,15.3333333 L15.3333333,36.4166667 L15.3333333,36.4166667 Z M12.4583333,12.903 C10.6068333,12.903 9.10416667,11.3888333 9.10416667,9.522 C9.10416667,7.65516667 10.6068333,6.141 12.4583333,6.141 C14.3098333,6.141 15.8125,7.65516667 15.8125,9.522 C15.8125,11.3888333 14.31175,12.903 12.4583333,12.903 L12.4583333,12.903 Z M38.3333333,36.4166667 L32.5833333,36.4166667 L32.5833333,25.6756667 C32.5833333,19.2203333 24.9166667,19.7090833 24.9166667,25.6756667 L24.9166667,36.4166667 L19.1666667,36.4166667 L19.1666667,15.3333333 L24.9166667,15.3333333 L24.9166667,18.71625 C27.5923333,13.75975 38.3333333,13.3936667 38.3333333,23.4619167 L38.3333333,36.4166667 L38.3333333,36.4166667 Z" id="Shape"></path>
            </g>
        </g>
    </g>
</svg>